# xmcd
#
# Track frame offsets:
#	150
#	19174
#	35733
#	49343
#	66189
#	81972
#	99716
#	124836
#	141906
#	155002
#	171241
#	187802
#	204614
#	222465
#	237384
#	252071
#	265158
#	280782
#	302678
#	322203
#
# Disc length: 4515 seconds
#
# Revision: 0
# Processed by: cddbd v1.5.2PL0 Copyright (c) Steve Scherf et al.
# Submitted via: EZCDAudioConverter 3.1.0.1
#
DISCID=3311a114
DTITLE=Nu Urban Traxx Volume 232 US
DYEAR=2016
DGENRE=blues
TTITLE0=The Weeknd - Party Monster
TTITLE1=Beyonce - All Night
TTITLE2=Future ft. Drake - Used To This
TTITLE3=Big Sean - Bounce Back
TTITLE4=Drake - Fake Love
TTITLE5=Kehlani - Distraction
TTITLE6=Migos ft. Lil Uzi Vert - Bad and Bougie
TTITLE7=Fat Joe and Remy Ma - Money Showers
TTITLE8=O.T. Genasis - Push It
TTITLE9=Dreezy - Wasted
TTITLE10=Wyclef Jean ft. Young Thug - I Swear
TTITLE11=DJ Esco ft. Future and Lil Uzi Vert - Too Much Sauce
TTITLE12=Young Thug - Wyclef Jean
TTITLE13=Kap G - Girlfriend
TTITLE14=Nebu Kiniza - Gassed Up
TTITLE15=A Tribe Called Quest - We The People...
TTITLE16=Childish Gambino - Redbone
TTITLE17=Eric Benet - Insane
TTITLE18=21 Savage and Metro Boomin ft. Future - X
TTITLE19=Ari Lennox ft. Cozz - Backseat
EXTD=
EXTT0=
EXTT1=
EXTT2=
EXTT3=
EXTT4=
EXTT5=
EXTT6=
EXTT7=
EXTT8=
EXTT9=
EXTT10=
EXTT11=
EXTT12=
EXTT13=
EXTT14=
EXTT15=
EXTT16=
EXTT17=
EXTT18=
EXTT19=
PLAYORDER=
